<mxfile host="app.diagrams.net" modified="2023-02-27T04:38:15.712Z" agent="5.0 (Windows NT 10.0; Win64; x64) AppleWebKit/537.36 (KHTML, like Gecko) Chrome/110.0.0.0 Safari/537.36" etag="hO_zTP2OS8Aot__N8eNW" version="20.8.23" type="github">
  <diagram name="第 1 页" id="T3tAwt_vPYVnly3fnjv3">
    <mxGraphModel dx="1949" dy="540" grid="1" gridSize="10" guides="1" tooltips="1" connect="1" arrows="1" fold="1" page="1" pageScale="1" pageWidth="827" pageHeight="1169" math="0" shadow="0">
      <root>
        <mxCell id="0" />
        <mxCell id="1" parent="0" />
        <mxCell id="f1Rn8pXJ9OwuXsxrikAa-1" value="" style="rounded=0;whiteSpace=wrap;html=1;dashed=1;" diagramCategory="general" diagramName="Rectangle" vertex="1" parent="1">
          <mxGeometry x="210" y="240" width="410" height="460" as="geometry" />
        </mxCell>
        <mxCell id="f1Rn8pXJ9OwuXsxrikAa-2" value="" style="rounded=0;whiteSpace=wrap;html=1;dashed=1;" diagramCategory="general" diagramName="Rectangle" vertex="1" parent="1">
          <mxGeometry x="-190" y="240" width="400" height="460" as="geometry" />
        </mxCell>
        <mxCell id="f1Rn8pXJ9OwuXsxrikAa-3" style="edgeStyle=orthogonalEdgeStyle;rounded=0;orthogonalLoop=1;jettySize=auto;html=1;exitX=1;exitY=0.5;exitDx=0;exitDy=0;entryX=0;entryY=0.5;entryDx=0;entryDy=0;" edge="1" parent="1" source="f1Rn8pXJ9OwuXsxrikAa-4" target="f1Rn8pXJ9OwuXsxrikAa-24">
          <mxGeometry relative="1" as="geometry" />
        </mxCell>
        <mxCell id="f1Rn8pXJ9OwuXsxrikAa-4" value="" style="rounded=0;whiteSpace=wrap;html=1;dashed=1;" diagramCategory="general" diagramName="Rectangle" vertex="1" parent="1">
          <mxGeometry x="-180" y="480" width="370" height="200" as="geometry" />
        </mxCell>
        <mxCell id="f1Rn8pXJ9OwuXsxrikAa-5" style="edgeStyle=orthogonalEdgeStyle;rounded=0;orthogonalLoop=1;jettySize=auto;html=1;exitX=1;exitY=0.5;exitDx=0;exitDy=0;entryX=0;entryY=0.5;entryDx=0;entryDy=0;fontSize=20;" edge="1" parent="1" source="f1Rn8pXJ9OwuXsxrikAa-6" target="f1Rn8pXJ9OwuXsxrikAa-29">
          <mxGeometry relative="1" as="geometry" />
        </mxCell>
        <mxCell id="f1Rn8pXJ9OwuXsxrikAa-6" value="&lt;span style=&quot;font-size: 16px;&quot;&gt;实时表（kafka）&lt;/span&gt;" style="rounded=0;whiteSpace=wrap;html=1;fontStyle=1;" diagramCategory="general" diagramName="Rectangle" vertex="1" parent="1">
          <mxGeometry x="-140" y="310" width="120" height="60" as="geometry" />
        </mxCell>
        <mxCell id="f1Rn8pXJ9OwuXsxrikAa-7" style="edgeStyle=orthogonalEdgeStyle;rounded=0;orthogonalLoop=1;jettySize=auto;html=1;exitX=1;exitY=0.5;exitDx=0;exitDy=0;" edge="1" parent="1" target="f1Rn8pXJ9OwuXsxrikAa-6">
          <mxGeometry relative="1" as="geometry">
            <mxPoint x="-150" y="430" as="sourcePoint" />
          </mxGeometry>
        </mxCell>
        <mxCell id="f1Rn8pXJ9OwuXsxrikAa-8" style="edgeStyle=orthogonalEdgeStyle;rounded=0;orthogonalLoop=1;jettySize=auto;html=1;" edge="1" parent="1" source="f1Rn8pXJ9OwuXsxrikAa-15" target="f1Rn8pXJ9OwuXsxrikAa-10">
          <mxGeometry relative="1" as="geometry">
            <mxPoint x="-150" y="430" as="sourcePoint" />
          </mxGeometry>
        </mxCell>
        <mxCell id="f1Rn8pXJ9OwuXsxrikAa-9" style="edgeStyle=orthogonalEdgeStyle;rounded=0;orthogonalLoop=1;jettySize=auto;html=1;exitX=1;exitY=0.5;exitDx=0;exitDy=0;entryX=0;entryY=0.5;entryDx=0;entryDy=0;" edge="1" parent="1" source="f1Rn8pXJ9OwuXsxrikAa-10" target="f1Rn8pXJ9OwuXsxrikAa-21">
          <mxGeometry relative="1" as="geometry" />
        </mxCell>
        <mxCell id="f1Rn8pXJ9OwuXsxrikAa-10" value="&lt;span style=&quot;font-size: 16px;&quot;&gt;准实时表（iceberg）&lt;/span&gt;" style="rounded=0;whiteSpace=wrap;html=1;fontStyle=1;" diagramCategory="general" diagramName="Rectangle" vertex="1" parent="1">
          <mxGeometry x="-140" y="525" width="120" height="60" as="geometry" />
        </mxCell>
        <mxCell id="f1Rn8pXJ9OwuXsxrikAa-11" style="edgeStyle=orthogonalEdgeStyle;rounded=0;orthogonalLoop=1;jettySize=auto;html=1;" edge="1" parent="1" source="f1Rn8pXJ9OwuXsxrikAa-12" target="f1Rn8pXJ9OwuXsxrikAa-15">
          <mxGeometry relative="1" as="geometry" />
        </mxCell>
        <mxCell id="f1Rn8pXJ9OwuXsxrikAa-12" value="DB" style="shape=mxgraph.flowchart.database;whiteSpace=wrap;html=1;fillColor=#ffffff;strokeColor=#000000;strokeWidth=2;" diagramCategory="Flowchart" diagramName="Database" vertex="1" parent="1">
          <mxGeometry x="-430.5" y="360" width="60" height="60" as="geometry" />
        </mxCell>
        <mxCell id="f1Rn8pXJ9OwuXsxrikAa-13" style="edgeStyle=orthogonalEdgeStyle;rounded=0;orthogonalLoop=1;jettySize=auto;html=1;exitX=0;exitY=0;exitDx=52.5;exitDy=30;exitPerimeter=0;entryX=0;entryY=0.5;entryDx=0;entryDy=0;" edge="1" parent="1" target="f1Rn8pXJ9OwuXsxrikAa-15">
          <mxGeometry relative="1" as="geometry">
            <Array as="points">
              <mxPoint x="-320" y="470" />
              <mxPoint x="-320" y="430" />
            </Array>
            <mxPoint x="-374.25" y="470" as="sourcePoint" />
          </mxGeometry>
        </mxCell>
        <mxCell id="f1Rn8pXJ9OwuXsxrikAa-15" value="&lt;span style=&quot;font-size: 16px;&quot;&gt;原始数据（kafka）&lt;/span&gt;" style="rounded=1;whiteSpace=wrap;html=1;arcSize=4;" diagramCategory="general" diagramName="RoundedRectangle" vertex="1" parent="1">
          <mxGeometry x="-270" y="400" width="70" height="60" as="geometry" />
        </mxCell>
        <mxCell id="f1Rn8pXJ9OwuXsxrikAa-16" value="cannal" style="text;html=1;strokeColor=none;fillColor=none;align=center;verticalAlign=middle;whiteSpace=wrap;rounded=0;" diagramCategory="general" diagramName="text" vertex="1" parent="1">
          <mxGeometry x="-360" y="370" width="40" height="20" as="geometry" />
        </mxCell>
        <mxCell id="f1Rn8pXJ9OwuXsxrikAa-17" value="flume..." style="text;html=1;strokeColor=none;fillColor=none;align=center;verticalAlign=middle;whiteSpace=wrap;rounded=0;" diagramCategory="general" diagramName="text" vertex="1" parent="1">
          <mxGeometry x="-372.5" y="450" width="40" height="20" as="geometry" />
        </mxCell>
        <mxCell id="f1Rn8pXJ9OwuXsxrikAa-18" value="&lt;b&gt;flink&lt;/b&gt;" style="text;html=1;strokeColor=none;fillColor=none;align=center;verticalAlign=middle;whiteSpace=wrap;rounded=0;" diagramCategory="general" diagramName="text" vertex="1" parent="1">
          <mxGeometry x="-150" y="410" width="40" height="20" as="geometry" />
        </mxCell>
        <mxCell id="f1Rn8pXJ9OwuXsxrikAa-19" value="" style="shape=mxgraph.arrows.u_turn_up_arrow;whiteSpace=wrap;html=1;fillColor=#ffffff;strokeColor=#000000;strokeWidth=2;" diagramCategory="arrow" diagramName="UTurnUpArrow" vertex="1" parent="1">
          <mxGeometry x="-123.5" y="600" width="87" height="62" as="geometry" />
        </mxCell>
        <mxCell id="f1Rn8pXJ9OwuXsxrikAa-20" value="&lt;b&gt;spark&lt;/b&gt;" style="text;html=1;strokeColor=none;fillColor=none;align=center;verticalAlign=middle;whiteSpace=wrap;rounded=0;" diagramCategory="general" diagramName="text" vertex="1" parent="1">
          <mxGeometry x="-170" y="621" width="40" height="20" as="geometry" />
        </mxCell>
        <mxCell id="f1Rn8pXJ9OwuXsxrikAa-21" value="&lt;span style=&quot;font-size: 16px;&quot;&gt;T+1表（hive）&lt;/span&gt;" style="rounded=0;whiteSpace=wrap;html=1;fontStyle=1;" diagramCategory="general" diagramName="Rectangle" vertex="1" parent="1">
          <mxGeometry x="40" y="525" width="120" height="60" as="geometry" />
        </mxCell>
        <mxCell id="f1Rn8pXJ9OwuXsxrikAa-22" value="&lt;b&gt;spark&lt;/b&gt;" style="text;html=1;strokeColor=none;fillColor=none;align=center;verticalAlign=middle;whiteSpace=wrap;rounded=0;" diagramCategory="general" diagramName="text" vertex="1" parent="1">
          <mxGeometry x="-10" y="530" width="40" height="20" as="geometry" />
        </mxCell>
        <mxCell id="f1Rn8pXJ9OwuXsxrikAa-23" style="edgeStyle=orthogonalEdgeStyle;rounded=0;orthogonalLoop=1;jettySize=auto;html=1;exitX=1;exitY=0.5;exitDx=0;exitDy=0;fontSize=20;dashed=1;" edge="1" parent="1" source="f1Rn8pXJ9OwuXsxrikAa-24" target="f1Rn8pXJ9OwuXsxrikAa-33">
          <mxGeometry relative="1" as="geometry" />
        </mxCell>
        <mxCell id="f1Rn8pXJ9OwuXsxrikAa-24" value="&lt;font style=&quot;font-size: 16px;&quot;&gt;计算逻辑&lt;/font&gt;" style="rounded=0;whiteSpace=wrap;html=1;fontStyle=1;" diagramCategory="general" diagramName="Rectangle" vertex="1" parent="1">
          <mxGeometry x="300" y="550" width="120" height="60" as="geometry" />
        </mxCell>
        <mxCell id="f1Rn8pXJ9OwuXsxrikAa-25" value="&lt;b&gt;调度周期&lt;/b&gt;" style="text;html=1;strokeColor=none;fillColor=none;align=center;verticalAlign=middle;whiteSpace=wrap;rounded=0;" diagramCategory="general" diagramName="text" vertex="1" parent="1">
          <mxGeometry x="224" y="550" width="60" height="20" as="geometry" />
        </mxCell>
        <mxCell id="f1Rn8pXJ9OwuXsxrikAa-26" value="&lt;b&gt;小文件合并&lt;/b&gt;" style="text;html=1;strokeColor=none;fillColor=none;align=center;verticalAlign=middle;whiteSpace=wrap;rounded=0;" diagramCategory="general" diagramName="text" vertex="1" parent="1">
          <mxGeometry x="-180" y="642" width="70" height="20" as="geometry" />
        </mxCell>
        <mxCell id="f1Rn8pXJ9OwuXsxrikAa-27" value="ODS" style="text;html=1;strokeColor=none;fillColor=none;align=center;verticalAlign=middle;whiteSpace=wrap;rounded=0;fontStyle=1;fontSize=20;" diagramCategory="general" diagramName="text" vertex="1" parent="1">
          <mxGeometry x="-60" y="250" width="100" height="20" as="geometry" />
        </mxCell>
        <mxCell id="f1Rn8pXJ9OwuXsxrikAa-28" style="edgeStyle=orthogonalEdgeStyle;rounded=0;orthogonalLoop=1;jettySize=auto;html=1;exitX=1;exitY=0.5;exitDx=0;exitDy=0;fontSize=20;dashed=1;" edge="1" parent="1" source="f1Rn8pXJ9OwuXsxrikAa-29" target="f1Rn8pXJ9OwuXsxrikAa-32">
          <mxGeometry relative="1" as="geometry" />
        </mxCell>
        <mxCell id="f1Rn8pXJ9OwuXsxrikAa-29" value="&lt;span style=&quot;font-size: 16px;&quot;&gt;计算逻辑&lt;/span&gt;" style="rounded=0;whiteSpace=wrap;html=1;fontStyle=1;" diagramCategory="general" diagramName="Rectangle" vertex="1" parent="1">
          <mxGeometry x="294" y="310" width="120" height="60" as="geometry" />
        </mxCell>
        <mxCell id="f1Rn8pXJ9OwuXsxrikAa-30" value="&lt;b&gt;时效性要求高&lt;/b&gt;" style="text;html=1;strokeColor=none;fillColor=none;align=center;verticalAlign=middle;whiteSpace=wrap;rounded=0;" diagramCategory="general" diagramName="text" vertex="1" parent="1">
          <mxGeometry x="204" y="310" width="80" height="20" as="geometry" />
        </mxCell>
        <mxCell id="f1Rn8pXJ9OwuXsxrikAa-31" value="CDM" style="text;html=1;strokeColor=none;fillColor=none;align=center;verticalAlign=middle;whiteSpace=wrap;rounded=0;fontStyle=1;fontSize=20;" diagramCategory="general" diagramName="text" vertex="1" parent="1">
          <mxGeometry x="250" y="250" width="136" height="20" as="geometry" />
        </mxCell>
        <mxCell id="f1Rn8pXJ9OwuXsxrikAa-45" style="edgeStyle=orthogonalEdgeStyle;rounded=0;orthogonalLoop=1;jettySize=auto;html=1;exitX=0.5;exitY=1;exitDx=0;exitDy=0;" edge="1" parent="1" source="f1Rn8pXJ9OwuXsxrikAa-32" target="f1Rn8pXJ9OwuXsxrikAa-44">
          <mxGeometry relative="1" as="geometry" />
        </mxCell>
        <mxCell id="f1Rn8pXJ9OwuXsxrikAa-32" value="&lt;span style=&quot;font-size: 16px;&quot;&gt;实时表（kafka）&lt;/span&gt;" style="rounded=0;whiteSpace=wrap;html=1;fontStyle=1;" diagramCategory="general" diagramName="Rectangle" vertex="1" parent="1">
          <mxGeometry x="470" y="310" width="120" height="60" as="geometry" />
        </mxCell>
        <mxCell id="f1Rn8pXJ9OwuXsxrikAa-33" value="&lt;span style=&quot;font-size: 16px;&quot;&gt;hive表&lt;/span&gt;" style="rounded=0;whiteSpace=wrap;html=1;fontStyle=1;" diagramCategory="general" diagramName="Rectangle" vertex="1" parent="1">
          <mxGeometry x="470" y="550" width="120" height="60" as="geometry" />
        </mxCell>
        <mxCell id="f1Rn8pXJ9OwuXsxrikAa-34" value="n..." style="text;html=1;strokeColor=none;fillColor=none;align=center;verticalAlign=middle;whiteSpace=wrap;rounded=0;fontStyle=1;" diagramCategory="general" diagramName="text" vertex="1" parent="1">
          <mxGeometry x="420" y="320" width="40" height="20" as="geometry" />
        </mxCell>
        <mxCell id="f1Rn8pXJ9OwuXsxrikAa-35" value="&lt;b&gt;路由&lt;/b&gt;" style="text;html=1;strokeColor=none;fillColor=none;align=center;verticalAlign=middle;whiteSpace=wrap;rounded=0;" diagramCategory="general" diagramName="text" vertex="1" parent="1">
          <mxGeometry x="224" y="590" width="60" height="20" as="geometry" />
        </mxCell>
        <mxCell id="f1Rn8pXJ9OwuXsxrikAa-36" value="n..." style="text;html=1;strokeColor=none;fillColor=none;align=center;verticalAlign=middle;whiteSpace=wrap;rounded=0;fontStyle=1;" diagramCategory="general" diagramName="text" vertex="1" parent="1">
          <mxGeometry x="420" y="560" width="40" height="20" as="geometry" />
        </mxCell>
        <mxCell id="f1Rn8pXJ9OwuXsxrikAa-38" value="" style="verticalLabelPosition=bottom;verticalAlign=top;html=1;strokeWidth=2;shape=mxgraph.arrows2.arrow;dy=0.6;dx=40;notch=0;" vertex="1" parent="1">
          <mxGeometry x="365" y="250" width="70" height="20" as="geometry" />
        </mxCell>
        <mxCell id="f1Rn8pXJ9OwuXsxrikAa-39" value="CDM" style="text;html=1;strokeColor=none;fillColor=none;align=center;verticalAlign=middle;whiteSpace=wrap;rounded=0;fontStyle=1;fontSize=20;" diagramCategory="general" diagramName="text" vertex="1" parent="1">
          <mxGeometry x="420" y="250" width="136" height="20" as="geometry" />
        </mxCell>
        <mxCell id="f1Rn8pXJ9OwuXsxrikAa-40" value="" style="sketch=0;pointerEvents=1;shadow=0;dashed=0;html=1;strokeColor=none;fillColor=#434445;aspect=fixed;labelPosition=center;verticalLabelPosition=bottom;verticalAlign=top;align=center;outlineConnect=0;shape=mxgraph.vvd.log_files;" vertex="1" parent="1">
          <mxGeometry x="-420.5" y="440" width="40" height="50" as="geometry" />
        </mxCell>
        <mxCell id="f1Rn8pXJ9OwuXsxrikAa-41" value="&lt;b&gt;flink&lt;/b&gt;" style="text;html=1;strokeColor=none;fillColor=none;align=center;verticalAlign=middle;whiteSpace=wrap;rounded=0;" diagramCategory="general" diagramName="text" vertex="1" parent="1">
          <mxGeometry x="90" y="320" width="40" height="20" as="geometry" />
        </mxCell>
        <mxCell id="f1Rn8pXJ9OwuXsxrikAa-44" value="&lt;span style=&quot;font-size: 16px;&quot;&gt;准实时表（iceberg）&lt;/span&gt;" style="rounded=0;whiteSpace=wrap;html=1;fontStyle=1;" diagramCategory="general" diagramName="Rectangle" vertex="1" parent="1">
          <mxGeometry x="470" y="410" width="120" height="60" as="geometry" />
        </mxCell>
      </root>
    </mxGraphModel>
  </diagram>
</mxfile>
